<svg xmlns="http://www.w3.org/2000/svg" width="64" height="64" fill="none" viewBox="0 0 64 64"><path fill="url(#paint0_linear)" d="M64 17.1L60.9 40.7L59.3 51.2L38.2 64L12.1 44L43.9 10.7L64 17.1Z"/><path fill="url(#paint1_linear)" d="M38.2 58.7L38.2999 60.5999H40.4L41.2 59.5L38.2 58.7Z"/><path fill="url(#paint2_linear)" d="M57.7 50L60.9 40.7L62.7999 54.2L57.7 50Z"/><path fill="url(#paint3_linear)" d="M64 17.1L27.1 42.2L10.5 44.8L43.9 1L64 17.1Z"/><path fill="url(#paint4_linear)" d="M36.9 10.5L43.9 1L42.7 20.4L36.9 10.5Z"/><path fill="url(#paint5_linear)" d="M10.3 44.6L0.699951 37.7L9.89995 28.6L37.2999 39.7L10.3 44.6Z"/><path fill="url(#paint6_linear)" d="M26 55.4L5.19995 62.4L10.4 47.7L35.9 37.9L50.0999 46.6L26 55.4Z"/><path fill="url(#paint7_linear)" d="M20.1 13.5L9.30005 0L30.2001 2.5L32.6 9.3L20.1 13.5Z"/><path fill="url(#paint8_linear)" d="M60.9 40.7L30.2 2.5L18.9 2.6L12.6 21.2L52.5 43.1L45.8 53.1L59.3 51.2L60.9 40.7Z"/><path fill="url(#paint9_linear)" d="M12.5 22.3L5.40002 22.1L9.30002 0L18.9 2.7L12.5 22.3Z"/><path fill="url(#paint10_linear)" d="M52.5 43.1L34.6 39.3L0 25.4L12.7 21.4L52.5 43.1Z"/><path fill="url(#paint11_linear)" d="M17.8 6L12.7 21.4L37.7999 35.1L38.2999 35.2L48.5999 27.5L17.8 6Z"/><path fill="url(#paint12_linear)" d="M9.3 0L0 25.4L11.8 22.3L12.7 21.4L17.8 6L9.3 0Z"/><path fill="url(#paint13_linear)" d="M5.19995 62.4L13.1 30.7L34.5999 39.2999L5.19995 62.4Z"/><path fill="url(#paint14_linear)" d="M34.5999 39.3L22.6 28.9L6.29995 27.4L0.699951 37.7L12.4 33L12.5 32.9L5.19995 62.4L34.5999 39.3Z"/><path fill="url(#paint15_linear)" d="M52.5 43.1L41.4 59.5L26 55.5L34.6 39.3L52.5 43.1Z"/><path fill="url(#paint16_linear)" d="M52.5 43.1L34.6 39.3L0 25.4L12.7 21.4L52.5 43.1Z"/><path fill="url(#paint17_linear)" d="M12.7 21.4L0 25.4L37.8 35.1L12.7 21.4Z"/><path fill="url(#paint18_linear)" d="M59.2999 51.2L45.4 53.0999L38.2 64L62.7999 54.2L59.2999 51.2Z"/><path fill="url(#paint19_linear)" d="M38.2 64L45.6 53.2L25.9 55.5999L38.2 64Z"/><path fill="url(#paint20_linear)" d="M23.8 27.4L37.7001 35L49.8 26.8L36.7001 10.5L23.8 27.4Z"/><path fill="url(#paint21_linear)" d="M48.6 27.5L32.3 16.1L23.8 27.4L37.7001 35L48.1 27.9L48.6 27.5Z"/><path fill="url(#paint22_linear)" d="M52 12H12V52H52V12Z"/><g opacity=".4"><g opacity=".3"><path fill="#231F20" d="M51.3 52L52 51.9V43.45L46.15 52H51.3Z" opacity=".3"/><path fill="url(#paint23_linear)" d="M37.6 12H16L12.8 21.35L50.3 41.9L13 21.55L12 21.85V30.1L34.6 39.2L52 42.95V42.85V29.9L37.6 12Z" opacity=".3"/><path fill="url(#paint24_linear)" d="M16 12L12.8 21.35L52 42.85V29.9L37.6 12H16Z" opacity=".3"/><path fill="#F9ED32" d="M12 12V22.45H12.05L12.95 21.5L16.05 12H12Z" opacity=".3"/></g><path fill="url(#paint25_linear)" d="M12 21.85V30.1L34.6 39.2001L52 42.9501V42.85L13 21.55L12 21.85Z" opacity=".3"/><path fill="url(#paint26_linear)" d="M12 28.4501L37.75 35.05L13 21.55L12 21.85V28.4501Z" opacity=".3"/><path fill="url(#paint27_linear)" d="M27.75 52L34.6 39.2L18.3 52H27.75Z" opacity=".3"/><path fill="#F7941D" d="M12 36L12.75 32.9L12.65 33L12 33.25V36Z" opacity=".3"/><path fill="url(#paint28_linear)" d="M12 33.25L12.65 33L12.75 32.9L12 36V52H18.3L34.6 39.2L12 30.1V33.25Z" opacity=".3"/><path fill="url(#paint29_linear)" d="M27.75 52H46.15L52 43.45V42.95L34.6 39.2L27.75 52Z" opacity=".3"/><g opacity=".3"><path fill="url(#paint30_linear)" d="M49.55 26.85L52 25.2V12H37.6L49.55 26.85Z" opacity=".3"/></g></g><g opacity=".5"><path fill="url(#paint31_linear)" d="M16 12L12.8 21.35L52 42.85V29.9L37.6 12H16Z" opacity=".3"/><path fill="#F9ED32" d="M12 12V22.45H12.05L12.95 21.5L16.05 12H12Z" opacity=".3"/></g><path fill="#fff" d="M32 44.45H17V46.95H32V44.45Z"/><path fill="#fff" d="M24.45 19.75V17H17V19.75H19.1V29.2H17V31.9H24.45V29.2H22.4V19.75H24.45Z"/><path fill="#fff" d="M31.65 32.15C30.5 32.15 29.5 31.95 28.7 31.5C27.9 31.05 27.25 30.55 26.75 29.9L28.8 27.6C29.25 28.05 29.65 28.45 30.1 28.7C30.55 28.95 31 29.1 31.55 29.1C32.15 29.1 32.65 28.9 33 28.5C33.35 28.1 33.55 27.5 33.55 26.6V17H36.9V26.75C36.9 27.65 36.8 28.4 36.55 29.05C36.3 29.7 35.95 30.25 35.5 30.7C35.05 31.15 34.5 31.5 33.85 31.75C33.15 32 32.45 32.15 31.65 32.15Z"/><defs><linearGradient id="paint0_linear" x1="37.132" x2="39.836" y1="19.19" y2="52.935" gradientUnits="userSpaceOnUse"><stop offset=".1" stop-color="#087CFA"/><stop offset=".46" stop-color="#079AF6"/><stop offset=".845" stop-color="#07C3F2"/></linearGradient><linearGradient id="paint1_linear" x1="39.786" x2="40.316" y1="60.115" y2="60.885" gradientUnits="userSpaceOnUse"><stop offset=".286" stop-color="#087CFA"/><stop offset="1" stop-color="#079AF6"/></linearGradient><linearGradient id="paint2_linear" x1="59.135" x2="65.088" y1="55.499" y2="37.562" gradientUnits="userSpaceOnUse"><stop offset=".118" stop-color="#27A6F6"/><stop offset=".242" stop-color="#2F99F5"/><stop offset=".92" stop-color="#5753F2"/></linearGradient><linearGradient id="paint3_linear" x1="65.258" x2="28.05" y1="3.651" y2="26.15" gradientUnits="userSpaceOnUse"><stop offset=".286" stop-color="#0AEFFF"/><stop offset=".329" stop-color="#09DEFA"/><stop offset=".397" stop-color="#07CAF4"/><stop offset=".442" stop-color="#07C3F2"/><stop offset=".501" stop-color="#07ACF5"/><stop offset=".575" stop-color="#0897F7"/><stop offset=".657" stop-color="#0888F9"/><stop offset=".753" stop-color="#087FFA"/><stop offset=".898" stop-color="#087CFA"/></linearGradient><linearGradient id="paint4_linear" x1="40.362" x2="40.362" y1="-.461" y2="24.218" gradientUnits="userSpaceOnUse"><stop offset=".207" stop-color="#02C5FE"/><stop offset=".317" stop-color="#04ACFD"/><stop offset=".444" stop-color="#0697FB"/><stop offset=".585" stop-color="#0788FB"/><stop offset=".75" stop-color="#087FFA"/><stop offset="1" stop-color="#087CFA"/></linearGradient><linearGradient id="paint5_linear" x1="10.323" x2="15.841" y1="30.587" y2="35.756" gradientUnits="userSpaceOnUse"><stop offset="0" stop-color="#FF581C"/><stop offset=".192" stop-color="#FF5124"/><stop offset=".495" stop-color="#FE3F3B"/><stop offset=".785" stop-color="#FE2857"/></linearGradient><linearGradient id="paint6_linear" x1="17.473" x2="26.774" y1="43.576" y2="53.593" gradientUnits="userSpaceOnUse"><stop offset=".457" stop-color="#FF149D"/><stop offset=".536" stop-color="#EF1AB2"/><stop offset=".698" stop-color="#C82BE9"/><stop offset=".757" stop-color="#B831FF"/><stop offset=".839" stop-color="#A33AFE"/><stop offset="1" stop-color="#6E51FD"/></linearGradient><linearGradient id="paint7_linear" x1="19.485" x2="22.449" y1="-1.647" y2="11.319" gradientUnits="userSpaceOnUse"><stop offset=".028" stop-color="#FFDE17"/><stop offset=".276" stop-color="#FDB60D"/><stop offset=".594" stop-color="#FC801D"/><stop offset=".653" stop-color="#FC7A25"/><stop offset=".747" stop-color="#FD6A3C"/><stop offset=".863" stop-color="#FE4F61"/><stop offset=".976" stop-color="#FF318C"/></linearGradient><linearGradient id="paint8_linear" x1="17.355" x2="62.087" y1="11.379" y2="46.891" gradientUnits="userSpaceOnUse"><stop offset="0" stop-color="#FE2857"/><stop offset=".056" stop-color="#FE255F"/><stop offset=".144" stop-color="#FF1F76"/><stop offset=".228" stop-color="#FF1692"/><stop offset=".289" stop-color="#F11BA7"/><stop offset=".414" stop-color="#CD29DE"/><stop offset=".483" stop-color="#B831FF"/><stop offset=".581" stop-color="#7A4CFD"/><stop offset=".748" stop-color="#087CFA"/><stop offset=".975" stop-color="#07A5F5"/></linearGradient><linearGradient id="paint9_linear" x1="6.736" x2="15.8" y1="9.914" y2="14.048" gradientUnits="userSpaceOnUse"><stop offset=".289" stop-color="#FFDE17"/><stop offset=".987" stop-color="#fff"/></linearGradient><linearGradient id="paint10_linear" x1="4.917" x2="49.272" y1="22.619" y2="45.695" gradientUnits="userSpaceOnUse"><stop offset=".246" stop-color="#FE2857"/><stop offset=".292" stop-color="#FE265F"/><stop offset=".364" stop-color="#FE1F76"/><stop offset=".453" stop-color="#FF159B"/><stop offset=".457" stop-color="#FF149D"/><stop offset=".536" stop-color="#EF1AB2"/><stop offset=".698" stop-color="#C82BE9"/><stop offset=".757" stop-color="#B831FF"/><stop offset=".811" stop-color="#A33AFE"/><stop offset=".921" stop-color="#6C52FD"/><stop offset="1" stop-color="#4164FC"/></linearGradient><linearGradient id="paint11_linear" x1="14.669" x2="39.712" y1="13.05" y2="30.938" gradientUnits="userSpaceOnUse"><stop offset=".008" stop-color="#FC35E3"/><stop offset=".216" stop-color="#F12CD5"/><stop offset=".41" stop-color="#EB27CD"/><stop offset=".498" stop-color="#DE2ADA"/><stop offset=".778" stop-color="#B831FF"/><stop offset="1" stop-color="#6D51FD"/></linearGradient><linearGradient id="paint12_linear" x1="4.487" x2="13.133" y1="12.582" y2="18.127" gradientUnits="userSpaceOnUse"><stop offset=".043" stop-color="#FFD25F"/><stop offset=".289" stop-color="#FEBC9B"/><stop offset=".617" stop-color="#FC9CF0"/><stop offset="1" stop-color="#FD5ED7"/></linearGradient><linearGradient id="paint13_linear" x1="-2.598" x2="37.431" y1="28.849" y2="68.026" gradientUnits="userSpaceOnUse"><stop offset=".023" stop-color="#FC801D"/><stop offset=".247" stop-color="#FC7E20"/><stop offset=".276" stop-color="#FC772A"/><stop offset=".325" stop-color="#FD6444"/><stop offset=".388" stop-color="#FE466E"/><stop offset=".427" stop-color="#FF318C"/><stop offset=".492" stop-color="#EA3896"/><stop offset=".628" stop-color="#B248AE"/><stop offset=".819" stop-color="#5A63D6"/><stop offset=".986" stop-color="#087CFA"/></linearGradient><linearGradient id="paint14_linear" x1="7.215" x2="19.848" y1="28.958" y2="50.789" gradientUnits="userSpaceOnUse"><stop offset=".004" stop-color="#FFDE17"/><stop offset=".053" stop-color="#FECB12"/><stop offset=".109" stop-color="#FDBB0E"/><stop offset=".154" stop-color="#FDB60D"/><stop offset=".235" stop-color="#FDAE0F"/><stop offset=".357" stop-color="#FC9A15"/><stop offset=".472" stop-color="#FC801D"/><stop offset="1" stop-color="#FE4176"/></linearGradient><linearGradient id="paint15_linear" x1="33.526" x2="45.207" y1="40.213" y2="58.821" gradientUnits="userSpaceOnUse"><stop offset=".021" stop-color="#B149AF"/><stop offset=".083" stop-color="#9153BD"/><stop offset=".219" stop-color="#3F6BE2"/><stop offset=".304" stop-color="#087CFA"/><stop offset=".794" stop-color="#07C3F2"/></linearGradient><linearGradient id="paint16_linear" x1="4.917" x2="49.272" y1="22.619" y2="45.695" gradientUnits="userSpaceOnUse"><stop offset=".246" stop-color="#FE2857"/><stop offset=".292" stop-color="#FE265F"/><stop offset=".364" stop-color="#FE1F76"/><stop offset=".453" stop-color="#FF159B"/><stop offset=".457" stop-color="#FF149D"/><stop offset=".536" stop-color="#EF1AB2"/><stop offset=".698" stop-color="#C82BE9"/><stop offset=".757" stop-color="#B831FF"/><stop offset=".811" stop-color="#A33AFE"/><stop offset=".921" stop-color="#6C52FD"/><stop offset="1" stop-color="#4164FC"/></linearGradient><linearGradient id="paint17_linear" x1="8.983" x2="29.443" y1="24.708" y2="36.089" gradientUnits="userSpaceOnUse"><stop offset=".006" stop-color="#FF45ED"/><stop offset=".177" stop-color="#FF35D8"/><stop offset=".335" stop-color="#FF24C0"/><stop offset=".735" stop-color="#EA23CA"/><stop offset="1" stop-color="#D923D1"/></linearGradient><linearGradient id="paint18_linear" x1="55.443" x2="48.741" y1="46.247" y2="63.648" gradientUnits="userSpaceOnUse"><stop offset=".216" stop-color="#07C3F2"/><stop offset=".324" stop-color="#04B1EC"/><stop offset=".458" stop-color="#01A1E7"/><stop offset=".561" stop-color="#009BE5"/><stop offset=".575" stop-color="#0198E7"/><stop offset=".678" stop-color="#058AF1"/><stop offset=".799" stop-color="#0781F7"/><stop offset=".983" stop-color="#087EF9"/></linearGradient><linearGradient id="paint19_linear" x1="27.423" x2="42.767" y1="53.406" y2="58.891" gradientUnits="userSpaceOnUse"><stop offset=".153" stop-color="#087CFA"/><stop offset=".634" stop-color="#009AE5"/><stop offset="1" stop-color="#07C3F2"/></linearGradient><linearGradient id="paint20_linear" x1="39.817" x2="35.048" y1="12.992" y2="34.953" gradientUnits="userSpaceOnUse"><stop offset="0" stop-color="#FF188D"/><stop offset=".319" stop-color="#D82EC8"/><stop offset=".441" stop-color="#CC30CC"/><stop offset=".663" stop-color="#AC35D7"/><stop offset=".898" stop-color="#833CE5"/></linearGradient><linearGradient id="paint21_linear" x1="29.625" x2="38.926" y1="18.17" y2="31.288" gradientUnits="userSpaceOnUse"><stop offset="0" stop-color="#FF188D"/><stop offset=".319" stop-color="#D82EC8"/><stop offset=".441" stop-color="#CC30CC"/><stop offset=".663" stop-color="#AC35D7"/><stop offset=".898" stop-color="#833CE5"/></linearGradient><linearGradient id="paint22_linear" x1="11.383" x2="52.33" y1="15.192" y2="48.574" gradientUnits="userSpaceOnUse"><stop offset="0" stop-color="#521713"/><stop offset=".08" stop-color="#451310"/><stop offset=".299" stop-color="#270B09"/><stop offset=".514" stop-color="#110504"/><stop offset=".722" stop-color="#040101"/><stop offset=".914"/></linearGradient><linearGradient id="paint23_linear" x1="12" x2="52" y1="27.475" y2="27.475" gradientUnits="userSpaceOnUse"><stop offset=".246" stop-color="#FE2857"/><stop offset=".292" stop-color="#FE265F"/><stop offset=".364" stop-color="#FE1F76"/><stop offset=".453" stop-color="#FF159B"/><stop offset=".457" stop-color="#FF149D"/><stop offset=".536" stop-color="#EF1AB2"/><stop offset=".698" stop-color="#C82BE9"/><stop offset=".757" stop-color="#B831FF"/><stop offset=".811" stop-color="#A33AFE"/><stop offset=".921" stop-color="#6C52FD"/><stop offset="1" stop-color="#4164FC"/></linearGradient><linearGradient id="paint24_linear" x1="12.818" x2="52" y1="27.43" y2="27.43" gradientUnits="userSpaceOnUse"><stop offset=".112" stop-color="#F7941D"/><stop offset=".137" stop-color="#F88C25"/><stop offset=".178" stop-color="#F9753A"/><stop offset=".228" stop-color="#FB505D"/><stop offset=".286" stop-color="#FF1C8C"/><stop offset=".293" stop-color="#FF1692"/><stop offset=".403" stop-color="#EA1A93"/><stop offset=".468" stop-color="#DB1D93"/><stop offset=".554" stop-color="#9F2895"/><stop offset=".723" stop-color="#21409A"/><stop offset=".867" stop-color="#222F5C"/><stop offset="1" stop-color="#231F20"/></linearGradient><linearGradient id="paint25_linear" x1="12" x2="52" y1="32.239" y2="32.239" gradientUnits="userSpaceOnUse"><stop offset=".088" stop-color="#FE2857"/><stop offset=".128" stop-color="#FE265F"/><stop offset=".192" stop-color="#FE1F76"/><stop offset=".272" stop-color="#FF159B"/><stop offset=".275" stop-color="#FF149D"/><stop offset=".417" stop-color="#B21871"/><stop offset=".543" stop-color="#741B4E"/><stop offset=".649" stop-color="#481D35"/><stop offset=".731" stop-color="#2D1E26"/><stop offset=".779" stop-color="#231F20"/></linearGradient><linearGradient id="paint26_linear" x1="15.872" x2="31.536" y1="26.739" y2="35.452" gradientUnits="userSpaceOnUse"><stop offset=".006" stop-color="#FF45ED"/><stop offset=".177" stop-color="#FF35D8"/><stop offset=".335" stop-color="#FF24C0"/><stop offset=".451" stop-color="#EA24B0"/><stop offset=".692" stop-color="#B22388"/><stop offset="1" stop-color="#63214F"/></linearGradient><linearGradient id="paint27_linear" x1="18.284" x2="34.58" y1="45.599" y2="45.599" gradientUnits="userSpaceOnUse"><stop offset=".457" stop-color="#FF149D"/><stop offset=".536" stop-color="#EF1AB2"/><stop offset=".698" stop-color="#C82BE9"/><stop offset=".757" stop-color="#B831FF"/><stop offset=".839" stop-color="#A33AFE"/><stop offset="1" stop-color="#6E51FD"/></linearGradient><linearGradient id="paint28_linear" x1="12" x2="34.58" y1="41.055" y2="41.055" gradientUnits="userSpaceOnUse"><stop offset=".004" stop-color="#FFDE17"/><stop offset=".039" stop-color="#FECB12"/><stop offset=".079" stop-color="#FDBB0E"/><stop offset=".111" stop-color="#FDB60D"/><stop offset=".167" stop-color="#FDAE0F"/><stop offset=".252" stop-color="#FC9A15"/><stop offset=".332" stop-color="#FC801D"/><stop offset=".737" stop-color="#BE1E2D"/></linearGradient><linearGradient id="paint29_linear" x1="27.758" x2="52" y1="45.599" y2="45.599" gradientUnits="userSpaceOnUse"><stop offset="0" stop-color="#087CFA"/><stop offset=".794" stop-color="#231F20"/></linearGradient><linearGradient id="paint30_linear" x1="68.322" x2="42.833" y1="50.079" y2="8.803" gradientUnits="userSpaceOnUse"><stop offset=".349" stop-color="#3595F3"/><stop offset=".402" stop-color="#3490EB"/><stop offset=".486" stop-color="#3284D4"/><stop offset=".592" stop-color="#2F6FAE"/><stop offset=".714" stop-color="#2B527B"/><stop offset=".848" stop-color="#252D39"/><stop offset=".895" stop-color="#231F20"/></linearGradient><linearGradient id="paint31_linear" x1="12.818" x2="52" y1="27.43" y2="27.43" gradientUnits="userSpaceOnUse"><stop offset=".112" stop-color="#F7941D"/><stop offset=".137" stop-color="#F88C25"/><stop offset=".178" stop-color="#F9753A"/><stop offset=".228" stop-color="#FB505D"/><stop offset=".286" stop-color="#FF1C8C"/><stop offset=".293" stop-color="#FF1692"/><stop offset=".403" stop-color="#EA1A93"/><stop offset=".468" stop-color="#DB1D93"/><stop offset=".554" stop-color="#9F2895"/><stop offset=".723" stop-color="#21409A"/><stop offset=".867" stop-color="#222F5C"/><stop offset="1" stop-color="#231F20"/></linearGradient></defs></svg>