<svg xmlns="http://www.w3.org/2000/svg" xmlns:xlink="http://www.w3.org/1999/xlink" viewBox="0 0 206 182"><defs><linearGradient id="face" x1="0" x2="100%" y1="0" y2="0"><stop offset="0" stop-color="#d7d7d7"/><stop offset=".5" stop-color="#e7e7e7"/><stop offset="1" stop-color="#d7d7d7"/></linearGradient><linearGradient id="bevel" x1="0" x2="0" y1="0" y2="100%"><stop offset="0" stop-color="#d8d8d8"/><stop offset="1" stop-color="#a3a3a3"/></linearGradient><symbol id="btn-key" viewBox="0 0 60 60"><rect width="54" height="58" x="0" y="0" fill="url(#bevel)" rx="3" ry="3"/><rect width="50" height="50" x="2" y="1" fill="url(#face)" stroke="#fff" stroke-width=".25" rx="3" ry="3"/></symbol></defs><use width="60" height="60" x="0" y="0" xlink:href="#btn-key"/><use width="60" height="60" x="60" y="0" xlink:href="#btn-key"/><use width="60" height="60" x="120" y="0" xlink:href="#btn-key"/><rect width="54" height="58" x="120" y="0" fill="#3c3cff" stroke="none" opacity=".25" rx="3" ry="3"/><use width="60" height="60" x="22" y="62" xlink:href="#btn-key"/><use width="60" height="60" x="82" y="62" xlink:href="#btn-key"/><rect width="54" height="58" x="82" y="62" fill="#3c3c3c" stroke="none" opacity=".35" rx="3" ry="3"/><use width="60" height="60" x="142" y="62" xlink:href="#btn-key"/><use width="60" height="60" x="32" y="124" xlink:href="#btn-key"/><rect width="54" height="58" x="32" y="124" fill="#3c3c3c" stroke="none" opacity=".35" rx="3" ry="3"/><use width="60" height="60" x="92" y="124" xlink:href="#btn-key"/><rect width="54" height="58" x="92" y="124" fill="#3c3c3c" stroke="none" opacity=".35" rx="3" ry="3"/><use width="60" height="60" x="152" y="124" xlink:href="#btn-key"/><rect width="54" height="58" x="152" y="124" fill="#3c3c3c" stroke="none" opacity=".35" rx="3" ry="3"/><text x="130" y="43" fill="#222" style="font:900 18px sans-serif">3</text></svg>