<svg xmlns="http://www.w3.org/2000/svg" width="64" height="64" fill="none" viewBox="0 0 64 64"><path fill="url(#paint0_linear)" d="M8.6 57.8001L0 6.7001L16 0.100098L26.1 6.1001L35.5 1.1001L54.9 8.6001L44 64.0001L8.6 57.8001Z"/><path fill="url(#paint1_linear)" d="M35.5001 1.1001L26.1001 6.1001L28.9001 27.0001L34.6001 31.0001L36.4001 43.1001L42.8001 43.7001L37.9001 21.3001L35.5001 1.1001Z"/><path fill="url(#paint2_linear)" d="M28.8 29.1001L26.1 6.1001L16 0.100098L20.2 24.9001L21.8 40.3001L30.5 40.0001L29.8 36.1001L28.8 29.1001Z"/><path fill="url(#paint3_linear)" d="M8.6 57.8001L0 6.7001L16 0.100098L20.4 25.8001L8.6 57.8001Z"/><path fill="url(#paint4_linear)" d="M20.4 25.6001L16 0.100098L0 6.7001L17.8 22.2001L20.4 25.6001Z"/><path fill="url(#paint5_linear)" d="M8.6 57.7999L0 6.69995L17.8 22.2L35.5 45.7L8.6 57.7999Z"/><path fill="url(#paint6_linear)" d="M8.6001 57.7999L23.8001 46.8999L44.0001 63.9999L8.6001 57.7999Z"/><path fill="url(#paint7_linear)" d="M30.9 44.3L23.8 50.9001L44 64L47.5 46.2001L30.9 44.3Z"/><path fill="url(#paint8_linear)" d="M8.6001 57.7999L23.8001 50.8999L44.0001 63.9999L8.6001 57.7999Z"/><path fill="url(#paint9_linear)" d="M64.0001 21.7L55.7001 1.3L40.8001 0L17.6001 22.2L23.5001 50.9L35.9001 58.8L64.0001 42.1L57.0001 29L64.0001 21.7Z"/><path fill="url(#paint10_linear)" d="M42.5001 20.6L40.8001 0L17.6001 22.2L34.7001 27.5L42.5001 20.6Z"/><path fill="url(#paint11_linear)" d="M38.4001 2.19995L17.6001 22.2L34.7001 27.5L44.0001 37.5L41.0001 3.19995L38.4001 2.19995Z"/><path fill="url(#paint12_linear)" d="M34.7001 27.5L38.5001 24.1L37.9001 21.2999L35.9001 4.69995L27.1001 13.2L28.7001 25.7L34.7001 27.5Z"/><path fill="url(#paint13_linear)" d="M28.7 25.7L27 13.2L19.5 20.5L19.9 22.9L28.7 25.7Z"/><path fill="url(#paint14_linear)" d="M38.4001 2.19995L17.6001 22.2L41.0001 3.19995L38.4001 2.19995Z"/><path fill="url(#paint15_linear)" d="M36.2001 6.89995L35.9001 4.69995L27.1001 13.2L27.2001 14.3L36.2001 6.89995Z"/><path fill="url(#paint16_linear)" d="M27.1 14.4L27 13.2L19.5 20.5V20.7L27.1 14.4Z"/><path fill="url(#paint17_linear)" d="M49 14.6001L34.7 27.5001L35.9 58.8001L64 42.1001L57 29.0001L49 14.6001Z"/><path fill="url(#paint18_linear)" d="M42.6001 22.3001L43.8001 38.6001L64.0001 42.1001L57.0001 29.0001L52.9001 21.6001L42.6001 22.3001Z"/><path fill="url(#paint19_linear)" d="M42.6001 22.3001L43.8001 38.6001L47.0001 39.2001L57.0001 29.0001L52.9001 21.6001L42.6001 22.3001Z"/><path fill="url(#paint20_linear)" d="M34.7001 27.5L17.6001 22.2L23.5001 50.9L35.9001 58.7999L34.7001 27.5Z"/><path fill="url(#paint21_linear)" d="M29.0999 29.0999L28.5999 25.5999L19.8999 22.8999L20.1999 24.8999L23.0999 47.0999L23.4999 49.1999L32.5999 56.1999L29.0999 29.0999Z"/><path fill="url(#paint22_linear)" d="M23.5 50.9001L35.9 58.8L35.3 43.3L23.5 50.9001Z"/><path fill="url(#paint23_linear)" d="M48.9999 14.6L56.9999 29L63.9999 21.7001L55.6999 1.30005L45.3999 14.2L48.9999 14.6Z"/><path fill="url(#paint24_linear)" d="M52.8999 21.6001L56.9999 29.0001L63.9999 21.7001L52.8999 21.6001Z"/><path fill="url(#paint25_linear)" d="M17.6001 22.2L19.0001 28.9L17.6001 22.2Z"/><path fill="url(#paint26_linear)" d="M52 12H12V52H52V12Z"/><g opacity=".3"><path fill="url(#paint27_linear)" d="M28.7 27L30.2 39.6L34.8 45.8L42.7 43.7L37.8 21.3L36.6 12H26.7L28.7 27Z" opacity=".3"/><g opacity=".3"><path fill="url(#paint28_linear)" d="M52 49.2001V20.0001L49 14.6001L34.7 27.5001L35.7 52.0001H47.2999L52 49.2001Z" opacity=".3"/><path fill="url(#paint29_linear)" d="M51.9999 12H47.0999L45.3999 14.2L48.9999 14.6L51.9999 20V12Z" opacity=".3"/></g><path fill="url(#paint30_linear)" d="M20.2 24.9L23.8 51.2L30.5 40L29.8 36.1L28.8 29.1L26.8 12H18L20.2 24.9Z" opacity=".3"/><path fill="url(#paint31_linear)" d="M49.0001 14.6L45.4001 14.2L47.1001 12H28.3001L17.6001 22.2L23.5001 50.9L25.3001 52H35.7001L34.7001 27.5L49.0001 14.6Z" opacity=".3"/><path fill="url(#paint32_linear)" d="M12 17.2L17.8 22.2L20.4 25.6L18 12H12V17.2Z" opacity=".3"/><g opacity=".3"><path fill="url(#paint33_linear)" d="M12 17.2V52H21.6L23.8 50.9L17.8 22.2L12 17.2Z" opacity=".3"/></g></g><path fill="#fff" d="M32 44.45H17V46.95H32V44.45Z"/><path fill="#fff" d="M31.2001 16.9001L29.0001 25.6001L26.4001 16.9001H23.9001L21.3001 25.6001L19.1001 16.9001H15.6001L19.9001 31.9001H22.7001L25.1001 23.2001L27.6001 31.9001H30.4001L34.7001 16.9001H31.2001Z"/><path fill="#fff" d="M35.3 29.7L37.3 27.4C38.7 28.5 40.1 29.2 41.8 29.2C43.2 29.2 44 28.7 44 27.8C44 27 43.5 26.5 41 25.9C38 25.1 36 24.3 36 21.3C36 18.6 38.2 16.8 41.3 16.8C43.5 16.8 45.4001 17.5 46.9001 18.7L45 21.1C43.7 20.2 42.4 19.6 41.1 19.6C39.8001 19.6 39.2001 20.2 39.2001 20.9C39.2001 21.9 39.8 22.2 42.4 22.9C45.5 23.7 47.2001 24.8 47.2001 27.4C47.2001 30.4 44.9001 32.1 41.7001 32.1C39.4001 32.2 37.1 31.4 35.3 29.7Z"/><defs><linearGradient id="paint0_linear" x1="22.919" x2="39.481" y1="1.335" y2="60.96" gradientUnits="userSpaceOnUse"><stop offset=".285" stop-color="#07C3F2"/><stop offset=".941" stop-color="#087CFA"/></linearGradient><linearGradient id="paint1_linear" x1="28.422" x2="37.049" y1="-2.058" y2="35.085" gradientUnits="userSpaceOnUse"><stop offset=".067" stop-color="#42FFFA"/><stop offset=".341" stop-color="#07C3F2"/><stop offset=".941" stop-color="#087CFA"/></linearGradient><linearGradient id="paint2_linear" x1="13.911" x2="27.447" y1="-1.969" y2="32.007" gradientUnits="userSpaceOnUse"><stop offset=".285" stop-color="#07C3F2"/><stop offset=".941" stop-color="#087CFA"/></linearGradient><linearGradient id="paint3_linear" x1="3.681" x2="18.302" y1="-6.008" y2="53.383" gradientUnits="userSpaceOnUse"><stop offset=".067" stop-color="#42FFFA"/><stop offset=".341" stop-color="#07C3F2"/><stop offset=".941" stop-color="#087CFA"/></linearGradient><linearGradient id="paint4_linear" x1="9.056" x2="13.451" y1="17.35" y2="12.803" gradientUnits="userSpaceOnUse"><stop offset=".01" stop-color="#42FFFA"/><stop offset=".922" stop-color="#07C3F2" stop-opacity="0"/></linearGradient><linearGradient id="paint5_linear" x1="-15.988" x2="27.239" y1="19.224" y2="47.012" gradientUnits="userSpaceOnUse"><stop offset=".199" stop-color="#07C3F2"/><stop offset=".94" stop-color="#087CFA"/></linearGradient><linearGradient id="paint6_linear" x1=".211" x2="25.093" y1="54.46" y2="55.187" gradientUnits="userSpaceOnUse"><stop offset=".129" stop-color="#1D53B8"/><stop offset=".87" stop-color="#087CFA"/></linearGradient><linearGradient id="paint7_linear" x1="34.515" x2="39.908" y1="44.326" y2="63.74" gradientUnits="userSpaceOnUse"><stop offset=".277" stop-color="#087BFA"/><stop offset=".683" stop-color="#085DFA"/></linearGradient><linearGradient id="paint8_linear" x1="22.783" x2="26.597" y1="32.306" y2="63.183" gradientUnits="userSpaceOnUse"><stop offset=".523" stop-color="#087BFA"/><stop offset=".977" stop-color="#086DFA"/></linearGradient><linearGradient id="paint9_linear" x1="27.982" x2="56.001" y1="8.971" y2="50.056" gradientUnits="userSpaceOnUse"><stop offset=".129" stop-color="#FCF84A"/><stop offset=".499" stop-color="#07C3F2"/></linearGradient><linearGradient id="paint10_linear" x1="40.297" x2="37.561" y1="-.266" y2="5.527" gradientUnits="userSpaceOnUse"><stop offset="0" stop-color="#73A4AA"/><stop offset=".675" stop-color="#FCF84A"/></linearGradient><linearGradient id="paint11_linear" x1="26.063" x2="35.852" y1="-9.44" y2="57.097" gradientUnits="userSpaceOnUse"><stop offset=".179" stop-color="#FCF84A"/><stop offset=".859" stop-color="#07C3F2"/></linearGradient><linearGradient id="paint12_linear" x1="29.625" x2="37.095" y1="3.669" y2="35.831" gradientUnits="userSpaceOnUse"><stop offset=".179" stop-color="#FCF84A"/><stop offset=".973" stop-color="#12C6EC"/></linearGradient><linearGradient id="paint13_linear" x1="21.683" x2="27.779" y1="14.459" y2="27.148" gradientUnits="userSpaceOnUse"><stop offset=".129" stop-color="#FCF84A"/><stop offset=".941" stop-color="#07C3F2"/></linearGradient><linearGradient id="paint14_linear" x1="27.102" x2="31.697" y1="-2.431" y2="28.797" gradientUnits="userSpaceOnUse"><stop offset=".179" stop-color="#FCF84A"/><stop offset=".859" stop-color="#07C3F2"/></linearGradient><linearGradient id="paint15_linear" x1="30.532" x2="33.055" y1="5.079" y2="15.943" gradientUnits="userSpaceOnUse"><stop offset=".179" stop-color="#D3FF8C"/><stop offset=".876" stop-color="#12C6EC"/></linearGradient><linearGradient id="paint16_linear" x1="22.331" x2="24.102" y1="15.087" y2="18.773" gradientUnits="userSpaceOnUse"><stop offset=".129" stop-color="#FCF84A"/><stop offset=".941" stop-color="#07C3F2"/></linearGradient><linearGradient id="paint17_linear" x1="34.36" x2="52.594" y1="24.769" y2="51.505" gradientUnits="userSpaceOnUse"><stop offset="0" stop-color="#07C3F2"/><stop offset=".906" stop-color="#00A0FF"/></linearGradient><linearGradient id="paint18_linear" x1="60.803" x2="37.918" y1="31.233" y2="34.139" gradientUnits="userSpaceOnUse"><stop offset="0" stop-color="#07C3F2"/><stop offset="1" stop-color="#0895F7"/></linearGradient><linearGradient id="paint19_linear" x1="55.723" x2="39.025" y1="29.339" y2="31.459" gradientUnits="userSpaceOnUse"><stop offset="0" stop-color="#07C3F2"/><stop offset="1" stop-color="#0895F7"/></linearGradient><linearGradient id="paint20_linear" x1="15.019" x2="38.72" y1="18.519" y2="53.274" gradientUnits="userSpaceOnUse"><stop offset=".081" stop-color="#FCF84A"/><stop offset=".571" stop-color="#07C3F2"/></linearGradient><linearGradient id="paint21_linear" x1="17.715" x2="35.844" y1="20.027" y2="57.761" gradientUnits="userSpaceOnUse"><stop offset=".129" stop-color="#FCF84A"/><stop offset=".422" stop-color="#07C3F2"/></linearGradient><linearGradient id="paint22_linear" x1="22.951" x2="38.365" y1="42.672" y2="53.108" gradientUnits="userSpaceOnUse"><stop offset=".093" stop-color="#087CFA"/><stop offset=".658" stop-color="#07C3F2"/></linearGradient><linearGradient id="paint23_linear" x1="50.001" x2="57.91" y1="1.323" y2="29.333" gradientUnits="userSpaceOnUse"><stop offset="0" stop-color="#FCF84A"/><stop offset=".465" stop-color="#07C3F2"/><stop offset=".941" stop-color="#087CFA"/></linearGradient><linearGradient id="paint24_linear" x1="67.092" x2="43.662" y1="23.519" y2="26.97" gradientUnits="userSpaceOnUse"><stop offset="0" stop-color="#0863FA"/><stop offset=".941" stop-color="#1AC8FB"/></linearGradient><linearGradient id="paint25_linear" x1="16.555" x2="20.243" y1="22.989" y2="28.396" gradientUnits="userSpaceOnUse"><stop offset=".129" stop-color="#FCF84A"/><stop offset=".422" stop-color="#07C3F2"/></linearGradient><linearGradient id="paint26_linear" x1="10.995" x2="46.005" y1="10.184" y2="46.546" gradientUnits="userSpaceOnUse"><stop offset="0" stop-color="#006396"/><stop offset=".047" stop-color="#005682"/><stop offset=".168" stop-color="#003754"/><stop offset=".283" stop-color="#001F2F"/><stop offset=".391" stop-color="#000E15"/><stop offset=".487" stop-color="#000406"/><stop offset=".562"/><stop offset=".914"/></linearGradient><linearGradient id="paint27_linear" x1="29.17" x2="36.105" y1="7.58" y2="37.438" gradientUnits="userSpaceOnUse"><stop offset=".067" stop-color="#42FFFA"/><stop offset=".341" stop-color="#07C3F2"/><stop offset=".941" stop-color="#0838AF"/></linearGradient><linearGradient id="paint28_linear" x1="35.838" x2="53.559" y1="23.756" y2="49.741" gradientUnits="userSpaceOnUse"><stop offset=".182" stop-color="#07C3F2"/><stop offset=".906" stop-color="#00171C"/></linearGradient><linearGradient id="paint29_linear" x1="48.154" x2="50.787" y1="11.192" y2="20.519" gradientUnits="userSpaceOnUse"><stop offset="0" stop-color="#FCF84A"/><stop offset=".465" stop-color="#07C3F2"/><stop offset=".941" stop-color="#087CFA"/></linearGradient><linearGradient id="paint30_linear" x1="16.686" x2="28.992" y1="9.917" y2="40.806" gradientUnits="userSpaceOnUse"><stop offset=".017" stop-color="#086DFA"/><stop offset="1" stop-color="#08328E"/></linearGradient><linearGradient id="paint31_linear" x1="33.914" x2="30.778" y1="10.125" y2="53.892" gradientUnits="userSpaceOnUse"><stop offset=".019" stop-color="#00FE80"/><stop offset=".341" stop-color="#21DE9B"/><stop offset=".956" stop-color="#0770B1"/></linearGradient><linearGradient id="paint32_linear" x1="11.274" x2="21.389" y1="2.741" y2="34.798" gradientUnits="userSpaceOnUse"><stop offset=".199" stop-color="#07C3F2"/><stop offset=".94" stop-color="#0845D7"/></linearGradient><linearGradient id="paint33_linear" x1="6.043" x2="23.749" y1="20.488" y2="53.728" gradientUnits="userSpaceOnUse"><stop offset="0" stop-color="#07C3F2"/><stop offset=".941" stop-color="#0838AF"/></linearGradient></defs></svg>